<svg xmlns="http://www.w3.org/2000/svg" width="220.724" height="74" viewBox="0 0 220.724 74">
  <g id="logo" transform="translate(-1462 -112)">
    <g id="Group_1" data-name="Group 1" transform="translate(1462 115.554)">
      <path id="Path_2" data-name="Path 2" d="M62.231,134.842a4.073,4.073,0,0,1,2.284.6,1.947,1.947,0,0,1,.843,1.707,2.049,2.049,0,0,1-.894,1.83,3.823,3.823,0,0,1-2.277.619,4.07,4.07,0,0,1-2.466-.681,1.967,1.967,0,0,1-.768-1.692,2,2,0,0,1,.782-1.665,3.9,3.9,0,0,1,2.5-.72Zm-2.908,7.07h5.536a7.02,7.02,0,0,0-.217,1.661v23.005a7.353,7.353,0,0,0,.217,1.6H59.323a6.235,6.235,0,0,0,.2-1.6V143.573A6.187,6.187,0,0,0,59.323,141.912Z" transform="translate(-56.589 -101.732)" fill="#dc5458" fill-rule="evenodd"/>
      <path id="Path_3" data-name="Path 3" d="M72.9,157.684l-3.241,9.124a4.2,4.2,0,0,0-.182,1.438H66.321a6.476,6.476,0,0,0,.662-1.438l10.97-30.949a3.067,3.067,0,0,0,.227-1.249h4.9a3.951,3.951,0,0,0,.227,1.132l11.3,31.066a10.324,10.324,0,0,0,.811,1.438h-6.54a4.562,4.562,0,0,0-.265-1.438L85.4,157.684Zm.86-2.45H84.475l-5.442-15.185Z" transform="translate(-54.556 -101.796)" fill="#dc5458" fill-rule="evenodd"/>
      <path id="Path_4" data-name="Path 4" d="M91.543,140.517h5.218v3.674a9.809,9.809,0,0,1,2.381-2.7,9.681,9.681,0,0,1,5.694-1.6c2.989,0,5.267.929,6.8,2.758a7.213,7.213,0,0,1,1.5,4.861v17.666a9.611,9.611,0,0,0,.156,1.6h-5.512a5.155,5.155,0,0,0,.2-1.6V148.257a4.446,4.446,0,0,0-1.458-3.551,5.134,5.134,0,0,0-3.512-1.134,5.884,5.884,0,0,0-4.542,1.668,6.524,6.524,0,0,0-1.62,4.566v15.377a7.464,7.464,0,0,0,.211,1.6H91.543a6.624,6.624,0,0,0,.176-1.6v-23.06A6.754,6.754,0,0,0,91.543,140.517Z" transform="translate(-47.598 -100.337)" fill="#dc5458" fill-rule="evenodd"/>
      <path id="Path_5" data-name="Path 5" d="M115.118,144.048h-3.87V141.6h3.87v-5.064l5.248-.556c-.07.97-.107,1.605-.107,1.909V141.6h4.21v2.45h-4.21V163.03c0,1.555.619,2.358,1.906,2.358a5.478,5.478,0,0,0,2.371-.8v2.7a9.784,9.784,0,0,1-4.4,1.056,5.11,5.11,0,0,1-4-1.452,5.91,5.91,0,0,1-1.022-3.719Z" transform="translate(-42.163 -101.418)" fill="#dc5458" fill-rule="evenodd"/>
      <path id="Path_6" data-name="Path 6" d="M128.235,134.842a3.9,3.9,0,0,1,2.277.6,1.956,1.956,0,0,1,.871,1.707,2.015,2.015,0,0,1-.908,1.83,3.684,3.684,0,0,1-2.24.619,4.079,4.079,0,0,1-2.49-.681,2.232,2.232,0,0,1,.02-3.357,3.788,3.788,0,0,1,2.47-.72Zm-2.886,7.07h5.522a5.925,5.925,0,0,0-.193,1.661v23.005a6.022,6.022,0,0,0,.193,1.6h-5.522a6.293,6.293,0,0,0,.207-1.6V143.573A6.226,6.226,0,0,0,125.349,141.912Z" transform="translate(-38.371 -101.732)" fill="#dc5458" fill-rule="evenodd"/>
      <path id="Path_7" data-name="Path 7" d="M135.995,145.113h-2.8v-2.45h2.8v-4.5a5.375,5.375,0,0,1,1.7-4.273,9.1,9.1,0,0,1,5.951-1.775,23.855,23.855,0,0,1,6.248.981L148.878,136a9.553,9.553,0,0,0-4.37-1.266,3.341,3.341,0,0,0-2.655.97,3.636,3.636,0,0,0-.7,2.553v4.4h7.489v2.45h-7.489V167.33a7.926,7.926,0,0,0,.177,1.6h-5.541a5.87,5.87,0,0,0,.207-1.6Z" transform="translate(-36.109 -102.484)" fill="#dc5458" fill-rule="evenodd"/>
      <path id="Path_8" data-name="Path 8" d="M161.112,163.277a13.091,13.091,0,0,1-2.872,2.618,10.333,10.333,0,0,1-5.263,1.363,6.578,6.578,0,0,1-4.841-1.779,7.538,7.538,0,0,1-2.277-5.759,7.13,7.13,0,0,1,3.206-6.391,17.9,17.9,0,0,1,4.184-1.955c.832-.262,2.242-.692,4.265-1.28,1.83-.55,2.9-1.369,3.23-2.436a4.215,4.215,0,0,0,.182-1.211,3.293,3.293,0,0,0-1.139-2.553,5.158,5.158,0,0,0-3.657-1.225,9.057,9.057,0,0,0-4.827,1.4c-.475.3-1.142.753-1.975,1.383l-.846-3.368c1.259-.546,2.3-.988,3.151-1.255a18.826,18.826,0,0,1,5.979-.929c2.914,0,5.139.677,6.664,1.989a5.023,5.023,0,0,1,1.789,4.093v15.6c0,1.514.533,2.271,1.548,2.271a3.4,3.4,0,0,0,1.717-.819v2.914a7.4,7.4,0,0,1-3.885,1.314,3.8,3.8,0,0,1-3.333-1.432,6.644,6.644,0,0,1-1-2.549Zm-.185-12.164h0c-.592.333-.971.544-1.15.619-.276.135-1.668.681-4.17,1.6a8.589,8.589,0,0,0-3.6,2.379,5.41,5.41,0,0,0-1.166,3.5,4.953,4.953,0,0,0,1.262,3.447,3.839,3.839,0,0,0,3.031,1.19,5.455,5.455,0,0,0,4.727-2.484,6,6,0,0,0,1.067-3.389Z" transform="translate(-32.615 -100.337)" fill="#dc5458" fill-rule="evenodd"/>
      <path id="Path_9" data-name="Path 9" d="M168.529,144.048h-3.89V141.6h3.89v-5.064l5.234-.556c-.083.97-.121,1.605-.121,1.909V141.6h4.238v2.45h-4.238V163.03c0,1.555.634,2.358,1.947,2.358a5.554,5.554,0,0,0,2.368-.8v2.7a9.992,9.992,0,0,1-4.421,1.056,5.12,5.12,0,0,1-3.991-1.452,5.8,5.8,0,0,1-1.016-3.719Z" transform="translate(-27.434 -101.418)" fill="#dc5458" fill-rule="evenodd"/>
      <path id="Path_13" data-name="Path 13" d="M70.517,121.432a14.894,14.894,0,0,1,1.549.151,4.472,4.472,0,0,1-.111-1.059c0-.168,0-.31.014-.454A5.815,5.815,0,0,0,70.517,121.432Z" transform="translate(-53.399 -105.784)" fill="#dc5458" fill-rule="evenodd"/>
      <path id="Path_14" data-name="Path 14" d="M72.124,120.119a7.011,7.011,0,0,1,1.107-.1,5.872,5.872,0,0,1,1.053.1c-.041-.471-.041-.884-.059-1.355a20.09,20.09,0,0,0-2.1,1.259Z" transform="translate(-52.955 -106.143)" fill="#dc5458" fill-rule="evenodd"/>
      <g id="Group_56" data-name="Group 56">
        <path id="Path_10" data-name="Path 10" d="M98.813,125.736a.341.341,0,0,1,.378.385.579.579,0,0,1-.378.55h-10v6.874c-.11.558-.4.846-.911.846a.84.84,0,0,1-.933-.846v-6.874H76.961c-.33-.061-.458-.205-.458-.457a.585.585,0,0,1,.653-.478h9.815v-5.38H78.626c-.434-.069-.651-.233-.651-.44-.059-.316.158-.472.651-.472h8.345v-6.7c.14-.561.426-.822.933-.822a.86.86,0,0,1,.911.822v6.7h8.518c.251,0,.41.156.489.472,0,.207-.237.371-.677.44H88.815v5.38Zm-14.449-8.907c-1.146-1.166-2.157-2.15-3.04-2.886-.916-.72-1.5-1.053-1.762-1.022-.13.324.2,1.173,1.016,2.508A21.571,21.571,0,0,0,82.7,118.7a1.3,1.3,0,0,0,1.4-.185c.626-.389.692-.943.262-1.683Zm12.78-2.587c.389-.8.286-1.4-.262-1.765s-1.067-.148-1.6.647a33.744,33.744,0,0,0-2.669,4.186c-.359.754-.355,1.2.1,1.387.31,0,.936-.515,1.855-1.486s1.781-1.98,2.576-2.969Z" transform="translate(-51.747 -108.025)" fill="#dc5458" fill-rule="evenodd"/>
        <path id="Path_11" data-name="Path 11" d="M114.162,131.7a1.966,1.966,0,0,1-.661,1.4,2.017,2.017,0,0,1-1.38.438h-3.677a1,1,0,0,1-.864-.438c-.051-.274.222-.416.864-.447.774,0,1.634-.049,2.488-.11.791-.138,1.28-.472,1.379-1.032v-6.846H102.3a13.775,13.775,0,0,1-.911,4.321,12.778,12.778,0,0,1-2.234,3.808,2.767,2.767,0,0,1-1.379.743c-.453.087-.453-.231-.1-.884a17.047,17.047,0,0,0,2.515-7,104.134,104.134,0,0,0,.276-10.858,2.374,2.374,0,0,1,.56-1.651,2.13,2.13,0,0,1,1.669-.582h9.795a1.25,1.25,0,0,1,1.2.677,2.388,2.388,0,0,1,.478,1.555V131.7Zm-1.851-13.368h0v-4.858h-9.825v4.858Zm0,5.366h0v-4.435h-9.825V123.7Z" transform="translate(-45.978 -107.848)" fill="#dc5458" fill-rule="evenodd"/>
        <path id="Path_12" data-name="Path 12" d="M75.707,113.851c-4.5.529-9.993.874-16.54,1.059a11.093,11.093,0,0,0-.781-2.194,15.823,15.823,0,0,0,3.066.306c2.562,0,5.225-.128,8.029-.381a32.882,32.882,0,0,0,6.433-1.084,12.637,12.637,0,0,0,1.2,2.612A3.873,3.873,0,0,0,75.707,113.851Z" transform="translate(-56.745 -108.126)" fill="#dc5458" fill-rule="evenodd"/>
        <path id="Path_15" data-name="Path 15" d="M75.567,124.711a30.191,30.191,0,0,1-3.162.193H65.449c.4-.572.833-1.162,1.306-1.872h6.059c.41,0,.843.034,1.273.063a6.318,6.318,0,0,0-.667-1.768h-5.6a8.413,8.413,0,0,1,1.069-1.336,9.791,9.791,0,0,1-2.247-1.01h5.291c-.375-.523-.6-.813-.6-.813a6.629,6.629,0,0,1-.575-1.059h-3.01a4.87,4.87,0,0,1,1.888-.633A9.674,9.674,0,0,1,68.3,114.04a6.076,6.076,0,0,1-1.914.777,8.193,8.193,0,0,1,1.125,2.291H62.742a4.12,4.12,0,0,1,1.627-.544,8.656,8.656,0,0,1-1.424-2.34,4.558,4.558,0,0,1-1.809.778,8.487,8.487,0,0,1,1.146,2.105H61.136c-1.1,0-2.161-.038-3.214-.124.011.771.059,1.472.059,2.225,0,.871-.047,1.742-.059,2.6a5.448,5.448,0,0,1,1.026-.075,6.431,6.431,0,0,1,1.107.075c-.048-.956-.075-1.913-.075-2.827h6.478a23.643,23.643,0,0,1-1.046,2.346h-1.9a19.558,19.558,0,0,1-2.931-.241,7.033,7.033,0,0,1,.075,1.1,5.967,5.967,0,0,1-.075,1.059,20.645,20.645,0,0,1,2.931-.213h.86c0,.077-.038.11-.085.172a16.893,16.893,0,0,1-2.979,3.282,16.353,16.353,0,0,1-4.2,2.237,5.363,5.363,0,0,1,1.906,1.7,20.979,20.979,0,0,0,4.172-3.016c.221-.179.476-.448.806-.7a8.682,8.682,0,0,0,3.1,3.578,26.462,26.462,0,0,1-7.459.827,16.956,16.956,0,0,1,1.225,2.012,25.179,25.179,0,0,0,8.315-1.8,36.616,36.616,0,0,0,8.053,1.8,7.261,7.261,0,0,1,1.6-2.281,50.464,50.464,0,0,1-7.427-.8,13.2,13.2,0,0,0,4.176-5.339Zm-6.467,4.63h0a6.984,6.984,0,0,1-3.375-2.628h6.4A10.791,10.791,0,0,1,69.1,129.341Z" transform="translate(-57.1 -107.441)" fill="#dc5458" fill-rule="evenodd"/>
        <path id="Path_16" data-name="Path 16" d="M78.273,117.765s-5.573,3.014-6.455,5.109c-.083-2.277-4.135-7.084-4.135-7.084-1.97-2.71-1.069-4.758-1.069-4.758a3.454,3.454,0,0,1,3.963-2.095,3.883,3.883,0,0,1,3.22,3.458,3.845,3.845,0,0,1,4.249-2.026,3.468,3.468,0,0,1,2.931,3.4S81.066,116.037,78.273,117.765Z" transform="translate(-54.532 -108.868)" fill="#dc5458" fill-rule="evenodd"/>
      </g>
    </g>
    <g id="Group_2" data-name="Group 2" transform="translate(1624.436 112)">
      <path id="Path_17" data-name="Path 17" d="M308.543,53.082c-.37.262-.729.552-1.1.822a53.014,53.014,0,0,0-8.077,9.126c-.325.445-.611.9-.925,1.312-4.832,7.105-8.375,15.12-7.929,23.75a24.769,24.769,0,0,0,2.654,10.162c-1.67-2.933-3.882-5.583-5.521-8.589-1.884-3.412-3.825-6.936-5.412-10.523-.8-1.761-1.576-3.514-1.576-3.514-.256-.541,3.461-4.851,3.923-5.43a42.084,42.084,0,0,1,4.7-5.259,65.608,65.608,0,0,1,10.18-7.757,39.046,39.046,0,0,1,4.585-2.461,33.442,33.442,0,0,1,3.144-1.152C307.664,53.368,308.111,53.226,308.543,53.082Z" transform="translate(-257.46 -53.082)" fill="#dc5458" fill-rule="evenodd"/>
      <path id="Path_18" data-name="Path 18" d="M280.022,73.869c.3.877.573,1.767.907,2.64s.68,1.749,1.042,2.612c.387.945.794,1.85,1.215,2.779.4.887.85,1.784,1.326,2.656.407.81.814,1.6,1.266,2.381.418.8.874,1.546,1.332,2.34s.894,1.567,1.383,2.326c.463.727.947,1.486,1.437,2.26,5.362,7.743,11.122,14.776,18.434,20.663a98.886,98.886,0,0,0,9.509,6.853c-9.931-1.715-19.055-8.144-26.3-14.906a83.193,83.193,0,0,1-6.129-6.381,14.838,14.838,0,0,1-2.522-3.862c-.426.84-.838,1.243-1.179,2.078-.635,1.545-1.526,2.936-2.115,4.492-2.14,5.561-2.478,12.339-2.478,18.23a11.073,11.073,0,0,0-1.018-2.674c-.38-.984-.711-1.988-1.021-3.023a55.046,55.046,0,0,1-1.439-6.031,56.038,56.038,0,0,1,2.388-27.213,31.8,31.8,0,0,1,3.015-6.687C279.539,74.622,280.022,73.869,280.022,73.869Z" transform="translate(-259.584 -47.377)" fill="#dc5458" fill-rule="evenodd"/>
      <path id="Path_19" data-name="Path 19" d="M288.563,105.883a1.188,1.188,0,0,0-1.553-.693,10.079,10.079,0,0,0-2.091,1.356c-2.433,1.553-5.69,1.063-8.357.618-.981-.172-1.913-.384-2.862-.646-2.718-.78-5.976-2-7.784-4.306a6.2,6.2,0,0,1-1.332-3.247c0-2.684,2.575-5.1,6.618-6.666a.486.486,0,0,1-.051-.255c-5.235,1.636-8.678,4.464-8.678,7.667,0,4.858,6.65,7.267,10.407,8.144a37.209,37.209,0,0,0,6.087,1c2.711.239,6.845.02,9.061-1.643A1.241,1.241,0,0,0,288.563,105.883Z" transform="translate(-262.473 -42.363)" fill="#dc5458" fill-rule="evenodd"/>
      <path id="Path_20" data-name="Path 20" d="M301.71,73.462a4.642,4.642,0,1,1-4.647-4.621A4.642,4.642,0,0,1,301.71,73.462Z" transform="translate(-254.21 -48.744)" fill="#dc5458" fill-rule="evenodd"/>
    </g>
  </g>
</svg>
