<svg xmlns="http://www.w3.org/2000/svg" width="79.307" height="132.972" viewBox="0 0 79.307 132.972">
  <g id="pic-carrot" transform="translate(-10.333 9.166) rotate(-17)">
    <rect id="Rectangle_48" data-name="Rectangle 48" width="7.856" height="51.419" rx="3.928" transform="translate(23.495)" fill="#a1bb2f"/>
    <rect id="Rectangle_49" data-name="Rectangle 49" width="7.856" height="51.419" rx="3.928" transform="translate(6.135 15.275) rotate(-20)" fill="#a1bb2f"/>
    <path id="Rectangle_50" data-name="Rectangle 50" d="M3.928,0h0A3.928,3.928,0,0,1,7.856,3.928V47.491a3.928,3.928,0,0,1-3.928,3.928h0A3.928,3.928,0,0,1,0,47.491V3.928A3.928,3.928,0,0,1,3.928,0Z" transform="translate(38.823 12.294) rotate(16)" fill="#a1bb2f"/>
    <g id="Group_85" data-name="Group 85" transform="translate(0 38.564)">
      <path id="Path_478" data-name="Path 478" d="M27.122,90.889c-9.743.283-10.617-5.454-12.036-10L.352,12.689A9.136,9.136,0,0,1,2.531,3.9,12.586,12.586,0,0,1,11.921,0H27.212Z" fill="#f3a82b"/>
      <path id="Path_479" data-name="Path 479" d="M.092,90.889c9.742.283,10.614-5.454,12.033-10l14.733-68.2A9.123,9.123,0,0,0,24.679,3.9,12.583,12.583,0,0,0,15.29,0H0Z" transform="translate(26.943)" fill="#e07c14"/>
    </g>
  </g>
</svg>
