<svg id="pic-lettuce" xmlns="http://www.w3.org/2000/svg" width="157.972" height="137.897" viewBox="0 0 157.972 137.897">
  <path id="Path_504" data-name="Path 504" d="M228.819,34.642c-16.071-4.806-31.312-.47-41,3.816l-10.574,5.781v0c3.489,3.307,9.06,5.6,15.593,9.651,9.418.352,18.916,4.178,25.31,10.134,3.165,2.948,6.2,8.128,8.2,11.994,8.328-3.3,19.6-6.023,29.125-5.667,4.507.169,7.8-1.756,12.024-.739C271.331,39.151,251.388,41.391,228.819,34.642Z" transform="translate(-122.558 -32.534)" fill="#70c449"/>
  <path id="Path_505" data-name="Path 505" d="M26.8,88.736l-3.869,7.079c11.342.819,29.738,18.619,28.64,10.222,1.151,8.8,1.677,1.927,1.544,1.886,5.345-15.184,18.545-32.673,35.477-32.04C54.506,54.74,34.613,76.523,26.8,88.736Z" transform="translate(-15.854 -56.384)" fill="#6ab742"/>
  <path id="Path_506" data-name="Path 506" d="M300.674,103.1a2.572,2.572,0,0,1-1.688-4.513c.395-.344,9.9-8.406,29.466-7.355a2.572,2.572,0,1,1-.275,5.137c-17.505-.935-25.735,6.03-25.817,6.1A2.56,2.56,0,0,1,300.674,103.1Z" transform="translate(-206.125 -73.056)" fill="#43a838"/>
  <path id="Path_507" data-name="Path 507" d="M155.926,147.854c7.5-12.466,21.567-24.311,28.959-31.8a37.751,37.751,0,0,0-69.134,4.79C138.557,133.2,153.926,161.381,155.926,147.854Z" transform="translate(-80.037 -76.171)" fill="#b0e046"/>
  <path id="Path_508" data-name="Path 508" d="M169.122,148.882a2.572,2.572,0,0,1-1.991-4.2,27.614,27.614,0,0,1,19.658-10.066,2.572,2.572,0,1,1,.431,5.126,22.367,22.367,0,0,0-16.1,8.192A2.57,2.57,0,0,1,169.122,148.882Z" transform="translate(-115.164 -103.115)" fill="#a0c638"/>
  <path id="Path_509" data-name="Path 509" d="M72.842,257.572c11.4-16.325-2.123-21.73.939-35.2,4.287-18.851,7.373-23.751-1.5-34.264,0,0-17.5-25.271-67.2-28.2a4.181,4.181,0,0,0-4.365,3.716q-.51,3.871-.666,7.853C.011,172.62,0,173.758,0,174.893c.951,11.118,3.656,26.713,10.962,41.2A83.829,83.829,0,0,0,75.1,258.013c.263-.01.529-.011.79-.026C74.867,257.866,73.85,257.732,72.842,257.572Z" transform="translate(-0.001 -120.607)" fill="#4baa3d"/>
  <path id="Path_510" data-name="Path 510" d="M324.143,81.721a2.573,2.573,0,0,1-2.474-3.279l3.058-10.7a2.572,2.572,0,0,1,4.946,1.414l-3.058,10.7A2.574,2.574,0,0,1,324.143,81.721Z" transform="translate(-222.352 -55.591)" fill="#43a838"/>
  <path id="Path_511" data-name="Path 511" d="M16.879,218.285c-7.592-15.049-10.4-31.254-11.39-42.806,0-1.179.01-2.362.055-3.55q.155-4.136.692-8.161a4.214,4.214,0,0,1,2.8-3.573c-1.293-.11-2.606-.209-3.945-.288A4.181,4.181,0,0,0,.72,163.623q-.51,3.871-.666,7.853C.012,172.62,0,173.758,0,174.893c.951,11.118,3.656,26.713,10.962,41.2a84.135,84.135,0,0,0,40.261,35.792A87.519,87.519,0,0,1,16.879,218.285Z" transform="translate(-0.002 -120.607)" fill="#231f20" opacity="0.15"/>
  <path id="Path_512" data-name="Path 512" d="M295.518,154.487a6.534,6.534,0,0,0-3.58-4.1,66.565,66.565,0,0,0-78.39,98.046,74.036,74.036,0,0,0,8.83.88A73.23,73.23,0,0,0,267.55,235.9l5.613-4.39a73.545,73.545,0,0,0,22.355-77.02Z" transform="translate(-140.706 -111.463)" fill="#43a838"/>
  <path id="Path_513" data-name="Path 513" d="M209.027,211.6c1.332-35.161,29.691-63.021,64.593-64.824-.36-.019-.72-.037-1.081-.05a66.565,66.565,0,0,0-58.992,101.7q2.627.416,5.315.65A66.48,66.48,0,0,1,209.027,211.6Z" transform="translate(-140.706 -111.463)" fill="#231f20" opacity="0.15"/>
  <g id="Group_160" data-name="Group 160" transform="translate(27.398 67.198)">
    <path id="Path_514" data-name="Path 514" d="M124.237,314.395a2.562,2.562,0,0,1-.955-.185c-22.293-8.924-33.523-24.088-33.99-24.729a2.572,2.572,0,0,1,4.157-3.031c.165.223,10.951,14.659,31.745,22.984a2.573,2.573,0,0,1-.957,4.961Z" transform="translate(-88.799 -274.574)" fill="#368c2a"/>
    <path id="Path_515" data-name="Path 515" d="M153.024,303.522a2.573,2.573,0,0,1-2.516-2.048l-4.4-21.114a2.572,2.572,0,1,1,5.036-1.049l4.4,21.114a2.575,2.575,0,0,1-2.521,3.1Z" transform="translate(-128.39 -268.952)" fill="#368c2a"/>
    <path id="Path_516" data-name="Path 516" d="M249.6,315a2.572,2.572,0,0,1-1.22-4.837c40.873-21.975,52.731-57.694,52.846-58.052a2.572,2.572,0,0,1,4.9,1.573c-.125.39-3.165,9.7-11.518,21.911a124.484,124.484,0,0,1-43.791,39.1A2.569,2.569,0,0,1,249.6,315Z" transform="translate(-198.209 -250.327)" fill="#368c2a"/>
    <path id="Path_517" data-name="Path 517" d="M299.377,330.646a2.563,2.563,0,0,1-2.058-1.03,48.027,48.027,0,0,1-7.429-34.487,2.572,2.572,0,0,1,5.08.813,43.631,43.631,0,0,0,6.47,30.6,2.573,2.573,0,0,1-2.063,4.107Z" transform="translate(-227.416 -279.808)" fill="#368c2a"/>
    <path id="Path_518" data-name="Path 518" d="M380.79,334.161a2.572,2.572,0,0,1-.442-5.105l13.6-2.391a2.572,2.572,0,0,1,.89,5.066l-13.6,2.392A2.633,2.633,0,0,1,380.79,334.161Z" transform="translate(-288.923 -303.084)" fill="#368c2a"/>
  </g>
</svg>
