<svg xmlns="http://www.w3.org/2000/svg" width="136.657" height="136.657" viewBox="0 0 136.657 136.657">
  <g id="pic-scaler" transform="translate(0 0)">
    <rect id="Rectangle_33" data-name="Rectangle 33" width="110.254" height="110.254" rx="14.208" transform="translate(0 30.79) rotate(-16.216)" fill="#fff"/>
    <rect id="Rectangle_34" data-name="Rectangle 34" width="100.645" height="100.645" rx="14.208" transform="translate(5.955 34.061) rotate(-16.216)" fill="#ffca7b"/>
    <path id="Rectangle_35" data-name="Rectangle 35" d="M0,0H36.115A14.208,14.208,0,0,1,50.323,14.208v72.23a14.208,14.208,0,0,1-14.208,14.208H0a0,0,0,0,1,0,0V0A0,0,0,0,1,0,0Z" transform="translate(54.276 20.008) rotate(-16.216)" fill="#ffb57d"/>
    <path id="Rectangle_36" data-name="Rectangle 36" d="M0,0H42.653a0,0,0,0,1,0,0V6.827A11.765,11.765,0,0,1,30.889,18.592H11.765A11.765,11.765,0,0,1,0,6.827V0A0,0,0,0,1,0,0Z" transform="translate(33.829 25.954) rotate(-16.216)" fill="#fcfcfc"/>
    <path id="Path_466" data-name="Path 466" d="M642.413,370.95c-.015-.06-.024-.118-.042-.177a8.072,8.072,0,1,0-15.5,4.508c.017.059.041.113.059.172Z" transform="translate(-575.22 -335.336)" fill="#444"/>
    <path id="Path_467" data-name="Path 467" d="M634.853,365.346l-5.331,1.55,1.323-5.392Z" transform="translate(-574.902 -335.704)" fill="#ff4a4a"/>
    <rect id="Rectangle_37" data-name="Rectangle 37" width="1.981" height="3.433" rx="0.827" transform="translate(53.688 21.594) rotate(-16.216)" fill="#444"/>
    <rect id="Rectangle_38" data-name="Rectangle 38" width="1.981" height="3.433" rx="0.827" transform="translate(58.047 20.326) rotate(-16.216)" fill="#444"/>
    <rect id="Rectangle_39" data-name="Rectangle 39" width="1.981" height="3.433" rx="0.827" transform="translate(62.405 19.059) rotate(-16.216)" fill="#444"/>
    <rect id="Rectangle_40" data-name="Rectangle 40" width="1.981" height="3.433" rx="0.827" transform="translate(66.764 17.791) rotate(-16.216)" fill="#444"/>
    <rect id="Rectangle_41" data-name="Rectangle 41" width="1.981" height="3.433" rx="0.827" transform="matrix(0.96, -0.279, 0.279, 0.96, 40.612, 25.397)" fill="#444"/>
    <rect id="Rectangle_42" data-name="Rectangle 42" width="1.981" height="3.433" rx="0.827" transform="translate(44.971 24.129) rotate(-16.216)" fill="#444"/>
    <rect id="Rectangle_43" data-name="Rectangle 43" width="1.981" height="3.433" rx="0.827" transform="matrix(0.96, -0.279, 0.279, 0.96, 49.329, 22.862)" fill="#444"/>
  </g>
</svg>
