<svg id="pic-banana" xmlns="http://www.w3.org/2000/svg" width="97.839" height="98.74" viewBox="0 0 97.839 98.74">
  <path id="Path_519" data-name="Path 519" d="M99.736,42.922A59.88,59.88,0,0,1,91.57,65.855a64.434,64.434,0,0,1-15.763,17.5C57.133,97.8,32.548,101.51,14.965,96.829c-.237-.064-.47-.127-.7-.195A27.052,27.052,0,0,1,3.4,90.919l-1.063-.963.408-6.665.426-6.943a88.479,88.479,0,0,0,11.092-1.7c8.079-1.693,21.052-5.281,32.288-12.3,8.406-5.252,14.505-11.59,18.131-18.841l.04-.074c.941-1.763,3.518-7.086,4.108-10.507a28.886,28.886,0,0,1,6.318-13.257,10.756,10.756,0,0,1,4.189-2.8V0H94.393V18C100.067,23.822,100.863,34.871,99.736,42.922Z" transform="translate(-2.336)" fill="#ffdf48"/>
  <path id="Path_520" data-name="Path 520" d="M99.736,42.922A59.88,59.88,0,0,1,91.57,65.855a64.434,64.434,0,0,1-15.763,17.5C57.133,97.8,32.548,101.51,14.965,96.829c-.237-.064-.47-.127-.7-.195A27.052,27.052,0,0,1,3.4,90.919l-1.063-.963.408-6.665C99.858,96.634,87.321,0,87.321,0h7.072V18C100.067,23.822,100.863,34.871,99.736,42.922Z" transform="translate(-2.336)" fill="#ffd400"/>
  <path id="Path_521" data-name="Path 521" d="M14.262,387.059v21.989A27.052,27.052,0,0,1,3.4,403.333l-1.063-.963.408-6.665.426-6.943A88.528,88.528,0,0,0,14.262,387.059Z" transform="translate(-2.336 -312.414)" fill="#c27b48"/>
  <path id="Path_522" data-name="Path 522" d="M14.262,433v12.237A27.052,27.052,0,0,1,3.4,439.524l-1.063-.963.408-6.665Q8.783,432.725,14.262,433Z" transform="translate(-2.336 -348.605)" fill="#a66235"/>
</svg>
