<svg id="pic-water" xmlns="http://www.w3.org/2000/svg" width="47.007" height="100.728" viewBox="0 0 47.007 100.728">
  <path id="Path_533" data-name="Path 533" d="M183.539,309.631v-3.358a3.358,3.358,0,0,0-3.358-3.358v-1.049H139.891v1.049a3.358,3.358,0,0,0-3.358,3.358v3.358a3.356,3.356,0,0,0,1.9,3.023.37.37,0,0,1,.205.334h0a.369.369,0,0,1-.205.334,3.355,3.355,0,0,0-1.9,3.023V319.7a3.356,3.356,0,0,0,1.9,3.023.37.37,0,0,1,.205.334h0a.369.369,0,0,1-.205.334,3.355,3.355,0,0,0-1.9,3.023v3.358a3.355,3.355,0,0,0,1.9,3.023.37.37,0,0,1,.205.334h0a.369.369,0,0,1-.205.334,3.355,3.355,0,0,0-1.9,3.023,6.715,6.715,0,0,0,6.715,6.715h33.576a6.715,6.715,0,0,0,6.715-6.715,3.355,3.355,0,0,0-1.9-3.023.37.37,0,0,1-.205-.334h0a.369.369,0,0,1,.205-.334,3.355,3.355,0,0,0,1.9-3.023v-3.358a3.355,3.355,0,0,0-1.9-3.023.37.37,0,0,1-.205-.334h0a.369.369,0,0,1,.205-.334,3.355,3.355,0,0,0,1.9-3.023v-3.358a3.355,3.355,0,0,0-1.9-3.023.37.37,0,0,1-.205-.334h0a.369.369,0,0,1,.205-.334A3.355,3.355,0,0,0,183.539,309.631Z" transform="translate(-136.533 -242.479)" fill="#d8e2f3"/>
  <g id="Group_161" data-name="Group 161" transform="translate(0.514 60.437)">
    <path id="Path_534" data-name="Path 534" d="M326.442,316.938a3.355,3.355,0,0,0,1.9-3.023v-3.358a3.358,3.358,0,0,0-3.358-3.358h-4.826a3.358,3.358,0,0,1,3.358,3.358v3.358a3.355,3.355,0,0,1-1.9,3.023.37.37,0,0,0-.205.334h0a.369.369,0,0,0,.205.334,3.355,3.355,0,0,1,1.9,3.023v3.358a3.355,3.355,0,0,1-1.9,3.023.37.37,0,0,0-.205.334h0a.369.369,0,0,0,.205.334,3.355,3.355,0,0,1,1.9,3.023v3.358a3.355,3.355,0,0,1-1.9,3.023.37.37,0,0,0-.205.334h0a.369.369,0,0,0,.205.334,3.355,3.355,0,0,1,1.9,3.023,6.715,6.715,0,0,1-6.715,6.715h4.826a6.715,6.715,0,0,0,6.715-6.715,3.355,3.355,0,0,0-1.9-3.023.37.37,0,0,1-.205-.334h0a.369.369,0,0,1,.205-.334,3.355,3.355,0,0,0,1.9-3.023V330.7a3.355,3.355,0,0,0-1.9-3.023.37.37,0,0,1-.205-.334h0a.369.369,0,0,1,.205-.334,3.355,3.355,0,0,0,1.9-3.023V320.63a3.355,3.355,0,0,0-1.9-3.023.37.37,0,0,1-.205-.334h0A.37.37,0,0,1,326.442,316.938Z" transform="translate(-281.851 -307.199)" fill="#bacdea"/>
    <path id="Path_535" data-name="Path 535" d="M175.567,350.4H139.148a3.376,3.376,0,0,0,1.386,1.24.37.37,0,0,1,.205.334h0a.369.369,0,0,1-.205.334,3.376,3.376,0,0,0-1.386,1.239h36.419a1.574,1.574,0,0,0,0-3.148Z" transform="translate(-139.148 -341.901)" fill="#bacdea"/>
    <path id="Path_536" data-name="Path 536" d="M216.34,402.839a3.376,3.376,0,0,0,1.386-1.24H181.307a1.574,1.574,0,0,0,0,3.148h36.419a3.374,3.374,0,0,0-1.386-1.239.37.37,0,0,1-.205-.334h0A.369.369,0,0,1,216.34,402.839Z" transform="translate(-171.749 -383.027)" fill="#bacdea"/>
    <path id="Path_537" data-name="Path 537" d="M175.567,452.8H139.148a3.376,3.376,0,0,0,1.386,1.24.37.37,0,0,1,.205.334h0a.369.369,0,0,1-.205.334,3.374,3.374,0,0,0-1.386,1.239h36.419a1.574,1.574,0,0,0,0-3.148Z" transform="translate(-139.148 -424.155)" fill="#bacdea"/>
  </g>
  <path id="Path_538" data-name="Path 538" d="M181.861,206.952H138.213a1.679,1.679,0,0,1-1.679-1.679V185.128a1.679,1.679,0,0,1,1.679-1.679V182.4h43.649v1.049a1.679,1.679,0,0,1,1.679,1.679v20.146A1.679,1.679,0,0,1,181.861,206.952Z" transform="translate(-136.534 -146.516)" fill="#62a4fb"/>
  <path id="Path_539" data-name="Path 539" d="M347.227,183.449V182.4H342.4v1.049a1.679,1.679,0,0,1,1.679,1.679v20.146a1.679,1.679,0,0,1-1.679,1.679h4.826a1.679,1.679,0,0,0,1.679-1.679V185.128A1.679,1.679,0,0,0,347.227,183.449Z" transform="translate(-301.899 -146.516)" fill="#5392f9"/>
  <path id="Path_540" data-name="Path 540" d="M224.946,10.073H204.8V3.148A3.148,3.148,0,0,1,207.948,0H221.8a3.148,3.148,0,0,1,3.148,3.148Z" transform="translate(-191.37 0)" fill="#edf6ff"/>
  <path id="Path_541" data-name="Path 541" d="M221.867,45.008H235.3V54.16h-13.43Z" transform="translate(-205.079 -36.153)" fill="#bacdea"/>
  <path id="Path_542" data-name="Path 542" d="M233.723,228.582H223.44a1.574,1.574,0,0,1-1.574-1.574v-3.567a1.574,1.574,0,0,1,1.574-1.574h10.283a1.574,1.574,0,0,1,1.574,1.574v3.567A1.574,1.574,0,0,1,233.723,228.582Z" transform="translate(-205.078 -178.218)" fill="#edf6ff"/>
  <path id="Path_543" data-name="Path 543" d="M153.322,85.333a16.788,16.788,0,0,0-16.788,16.788V103.8a1.679,1.679,0,0,0,1.679,1.679h43.649a1.679,1.679,0,0,0,1.679-1.679v-1.679a16.788,16.788,0,0,0-16.788-16.788Z" transform="translate(-136.534 -68.545)" fill="#d8e2f3"/>
  <path id="Path_544" data-name="Path 544" d="M224.946,10.073H204.8V3.148A3.148,3.148,0,0,1,207.948,0H221.8a3.148,3.148,0,0,1,3.148,3.148Z" transform="translate(-191.37 0)" fill="#edf6ff"/>
  <path id="Path_545" data-name="Path 545" d="M270.426,0H265.6a3.358,3.358,0,0,1,3.358,3.358v6.715h4.826V3.358A3.358,3.358,0,0,0,270.426,0Z" transform="translate(-240.208 0)" fill="#d8e2f3"/>
  <g id="Group_162" data-name="Group 162" transform="translate(11.857 8.499)">
    <path id="Path_546" data-name="Path 546" d="M218.519,46.348H198.374a1.574,1.574,0,0,1,0-3.148h20.146a1.574,1.574,0,0,1,0,3.148Z" transform="translate(-196.8 -43.2)" fill="#d8e2f3"/>
  </g>
  <path id="Path_547" data-name="Path 547" d="M270.426,85.333H265.6a16.788,16.788,0,0,1,16.788,16.788V103.8a1.679,1.679,0,0,1-1.679,1.679h4.826a1.679,1.679,0,0,0,1.679-1.679v-1.679A16.788,16.788,0,0,0,270.426,85.333Z" transform="translate(-240.208 -68.545)" fill="#bacdea"/>
  <path id="Path_548" data-name="Path 548" d="M261.893,221.867h-4.826a1.679,1.679,0,0,1,1.679,1.679V226.9a1.679,1.679,0,0,1-1.679,1.679h4.826a1.679,1.679,0,0,0,1.679-1.679v-3.358A1.679,1.679,0,0,0,261.893,221.867Z" transform="translate(-233.354 -178.218)" fill="#d8e2f3"/>
  <path id="Path_549" data-name="Path 549" d="M143.249,265.066h-6.715v3.148h6.715a1.574,1.574,0,0,0,0-3.148Z" transform="translate(-136.534 -212.919)" fill="#5392f9"/>
  <path id="Path_550" data-name="Path 550" d="M341.622,268.214v-3.148h-6.715a1.574,1.574,0,1,0,0,3.148Z" transform="translate(-294.616 -212.919)" fill="#5392f9"/>
</svg>
