<svg xmlns="http://www.w3.org/2000/svg" width="140.032" height="149.993" viewBox="0 0 140.032 149.993">
  <g id="pic-quest" transform="translate(-316.906 -198.289)">
    <path id="Path_589" data-name="Path 589" d="M321.1,298.347a264.7,264.7,0,0,0,9.294-25.989c4.069-10.276,7.907-20.634,11.03-31.243,4.069-9.513,7.3-19.328,10.5-29.153,1.04-2.659,1.984-5.361,3.141-7.968,2.285-5.15,5.973-6.817,11.257-4.985,5.057,1.753,10.04,3.719,15.056,5.591-.072,2.84-1.856,4.806-3.491,6.855a4.868,4.868,0,0,1-2.352.619c-8.008-1.382-8.151-1.226-11.012,6.787q-15.365,43.038-30.644,86.106c-1.939,4.135-.108,6.417,3.742,7.82,22.264,8.118,44.576,16.1,66.994,23.782,5.12,1.753,6.555.9,8.426-4.388,10.366-29.275,20.975-58.464,31.212-87.785,1.234-3.535,1.778-6.756-2.8-8.282-3.3-1.14-6.718-2.005-9.518-4.256a2.96,2.96,0,0,1-.629-2.266,5.242,5.242,0,0,1,.6-1.466c1.175-1.753.306-4.358,2.379-5.745,6.541.558,12.438,3.218,18.132,6.112,3.874,1.969,5.134,5.813,4.239,10.144a60.565,60.565,0,0,1-2,6.687c-3.913,10-7.419,20.157-10.861,30.333-3.371,7.8-5.507,16.04-8.594,23.941-3.25,8.992-6.55,17.966-9.553,27.046-1.832,4.2-3.193,8.575-4.679,12.9-1.313,3.82-3.465,6.907-7.446,8.367a23.12,23.12,0,0,1-5.153.368c-4.9-.434-9.3-2.458-13.772-4.279-17.385-6.679-34.884-13.034-52.658-18.624-5.246-1.825-10.324-4.073-15.577-5.9C316.109,315.91,313.94,306.833,321.1,298.347Z" fill="#65666c"/>
    <path id="Path_590" data-name="Path 590" d="M377.9,214.3c11.471,4.24,22.93,8.515,34.42,12.7,4.323,1.576,8.719,2.952,13.082,4.419,2.164.8,4.325,1.849,6.505.044l.118-.21,9.193,3.468c3.39,2.707,1.547,5.952.625,8.834-4.263,13.32-9.266,26.384-13.935,39.564-4.968,14.023-9.886,28.066-14.989,42.043-3.226,8.837-5.655,10.051-14.494,6.846-19.045-6.9-38.132-13.692-57.167-20.62-3.387-1.233-8.154-1.356-8.6-6.663q13.119-37.389,26.243-74.775c1.539-4.378,3.174-8.721,4.731-13.092,3.166-8.883,3.157-8.886,12.141-5.71C376.966,211.873,377,213.375,377.9,214.3Z" fill="#fefefe"/>
    <path id="Path_591" data-name="Path 591" d="M332.656,304.729c1.112,2.289,3.19,3.206,5.438,4.008q31.631,11.289,63.239,22.639c5.748,2.057,7.148,1.429,9.214-4.359q15.174-42.5,30.321-85.016c.88-2.457,1.477-4.789.346-7.276,6.016,1.478,6.992,3.429,4.965,9.1q-15.84,44.3-31.564,88.641c-2.558,7.22-3.733,8.005-10.952,5.466q-33.477-11.778-66.891-23.733C330.741,312.042,330.274,310.775,332.656,304.729Z" fill="#55565b"/>
    <path id="Path_592" data-name="Path 592" d="M432.038,229.243q-.008-3.783-.014-7.565l.981,1.123c.728,2.141,1.014,4.269-.188,6.353A5.823,5.823,0,0,0,432.038,229.243Z" fill="#c5b284"/>
    <path id="Path_593" data-name="Path 593" d="M432.817,229.154q.095-3.177.188-6.353l1.09.361C433.684,225.163,435.058,227.544,432.817,229.154Z" fill="#7b6837"/>
    <path id="Path_594" data-name="Path 594" d="M432.024,221.679c-.447-2.655-2.675-3.875-4.419-5.484-1.969.217-3.584-1.112-3.625-2.541-.225-7.816-6.113-9.85-11.843-11.765-6.05-2.022-12.372-5.8-18.139.946-.952,1.113-2.718.594-4.141.343-1.815-.855-3.626-1.256-5.424.042q-1.526.69-3.052,1.379c-1.441,1.909-3.622,3.4-3.544,6.176a3.887,3.887,0,0,0-.73,3.389c1.522,3.512,5.092,3.612,8,4.655,13.391,4.8,26.608,10.112,40.3,14.048,2.052-.082,4.165.256,6.048-.925q.283-.345.571-.685.009-1.007.017-2.014C433.546,226.719,433.1,224.2,432.024,221.679Zm-15.395-9.4a79.29,79.29,0,0,1-18.86-7.058c4.812-2.945,16.56.374,21.4,5.6C419.091,212.645,417.972,212.655,416.629,212.274Z" fill="#f1c239"/>
    <path id="Path_597" data-name="Path 597" d="M412.334,288.7c-.616,2.1-1.437,3.625-4.158,2.644-11.617-4.193-23.239-8.378-34.93-12.357-2.58-.878-2.19-2.238-1.694-4.086.644-2.4,2.105-1.846,3.747-1.252q17.167,6.2,34.353,12.357C410.939,286.473,412.611,286.646,412.334,288.7Z" transform="translate(-0.734 9.817)" fill="#78c5c8"/>
    <path id="Path_599" data-name="Path 599" d="M418.835,270.655c-.459,1.982-.969,3.8-3.84,2.755q-17.639-6.418-35.33-12.7c-1.965-.7-2.322-1.794-1.738-3.7.687-2.248,2.134-2.112,3.786-1.516q17.407,6.277,34.8,12.589C417.755,268.531,418.892,268.981,418.835,270.655Z" transform="translate(-0.734 9.817)" fill="#79c5c8"/>
    <path id="Path_600" data-name="Path 600" d="M371.106,242.139a8.62,8.62,0,0,1,.616-17.228,8.548,8.548,0,0,1,8.42,9.173A8.732,8.732,0,0,1,371.106,242.139Z" transform="translate(-0.734 9.817)" fill="#d9624e"/>
    <path id="Path_602" data-name="Path 602" d="M358.393,251.891c.2-3.585,2.342-5.586,6.469-5.513,4.179.074,6.383,2.6,6.392,6.327.01,3.768-2.587,6.2-6.383,6.551C361.228,259.594,358.288,256.263,358.393,251.891Z" transform="translate(-0.734 9.817)" fill="#78c5c8"/>
    <path id="Path_603" data-name="Path 603" d="M358.251,264.687c3.861.512,6.557,2.727,6.424,6.559-.125,3.638-2.428,6.564-6.54,6.426-3.929-.131-6.161-2.482-6.254-6.579C351.783,266.76,354.351,265.107,358.251,264.687Z" transform="translate(-0.734 9.817)" fill="#79c5c8"/>
    <path id="Path_604" data-name="Path 604" d="M369.772,237.788c-2.577-.352-2.581-2.564-3.54-3.939-.489-.7-.928-1.758.047-2.367,1.69-1.057,2.337.505,3.437,1.388,1.867,1.5,3.121-.813,4.707-1.26,1.048-.3,2.19-.528,2.775.721.469,1-.233,1.736-1.025,2.166C374,235.681,371.767,236.77,369.772,237.788Z" transform="translate(-0.734 9.817)" fill="#fbf1ed"/>
  </g>
</svg>
