<svg xmlns="http://www.w3.org/2000/svg" xmlns:xlink="http://www.w3.org/1999/xlink" width="517.256" height="504" viewBox="0 0 517.256 504">
  <defs>
    <clipPath id="clip-path">
      <circle id="Ellipse_9" data-name="Ellipse 9" cx="218" cy="218" r="218" transform="translate(0.04 0.235)" fill="#f3888b"/>
    </clipPath>
    <clipPath id="clip-path-2">
      <rect id="Rectangle_21" data-name="Rectangle 21" width="436" height="244" transform="translate(0.04 -0.156)" fill="#fff" stroke="#707070" stroke-width="1"/>
    </clipPath>
  </defs>
  <g id="pic-doctor-2" transform="translate(-1090.744 -185)">
    <g id="Group_47" data-name="Group 47" transform="translate(-1.04 -60.844)">
      <g id="Group_46" data-name="Group 46" transform="translate(1173 246)">
        <g id="Mask_Group_1" data-name="Mask Group 1" transform="translate(0 67.609)" clip-path="url(#clip-path)">
          <g id="Group_7" data-name="Group 7" transform="translate(55.528 -67.715)">
            <g id="Group_5" data-name="Group 5" transform="translate(0.769 184.14)">
              <path id="Path_35" data-name="Path 35" d="M1817.669-477.769s72.362,19.093,89.952,49.768S1927.5-221.165,1927.5-221.165s-46.651,49.08-169.015,49.956c-69.87.5-92.554-40.407-99.185-75.745a153.816,153.816,0,0,1-.819-49.5S1593.3-395.573,1637.655-428a752.874,752.874,0,0,1,88.714-55.215,49.918,49.918,0,0,0,39,10.517C1789.08-476.2,1817.669-477.769,1817.669-477.769Z" transform="translate(-1606.993 497.147)" fill="#2e4897"/>
              <path id="Path_33" data-name="Path 33" d="M1705.649-488.272s-9.461,11.85-19.494,17.753a44.851,44.851,0,0,1-20.634,5.859l20.634,35.913,35.854-41.772Z" transform="translate(-1509.761 488.272)" fill="#53638e"/>
              <path id="Path_34" data-name="Path 34" d="M1698.914-466.912l-24.232,37.36L1643.7-467.671l28.888-20.935s2.472,9.9,8.531,15.357S1698.914-466.912,1698.914-466.912Z" transform="translate(-1542.554 490.44)" fill="#53638e"/>
            </g>
            <path id="Path_36" data-name="Path 36" d="M1703.306-482.511s-21.178,102.474-22.943,132.138-3.53,181.353-3.53,181.353,110.01-21.574,138.248-58.653c7.648-47.866-.589-170.566-27.65-209.668S1703.306-482.511,1703.306-482.511Z" transform="translate(-1486.379 685.965)" fill="#fff"/>
            <path id="Path_37" data-name="Path 37" d="M1709.5-482.084s-20.341,68.293-20.341,184.858v113.059s-26.692,5.817-42.758-31.446c-1.842-4.273,1.718-50.8,0-55.208,0-13.686,1.932-53.488-7.24-64.259-10.318-12.116-31.9,4.487-31.073-17.849,1.281-34.433,6.356-65.909,20.654-81.9C1660.1-469.882,1709.5-482.084,1709.5-482.084Z" transform="translate(-1607.714 690.044)" fill="#fff"/>
            <path id="Path_39" data-name="Path 39" d="M2011.312-446.284s-11.91,50.439-28.079,71.86-36.6,13.826-36.6,13.826l3.707-2.884a29.026,29.026,0,0,0,27.807-9.269c12.1-13.491,14.1-25.212,21.363-44.677s7.68-33.182,7.68-33.182Z" transform="translate(-1880.721 741.281)" fill="#b9cffe"/>
            <path id="Path_40" data-name="Path 40" d="M1946.635-446.284s11.91,50.439,28.079,71.86,36.6,13.826,36.6,13.826l-3.708-2.884a29.026,29.026,0,0,1-27.807-9.269c-12.1-13.491-14.1-25.212-21.362-44.677s-7.681-33.182-7.681-33.182Z" transform="translate(-1853.167 744.036)" fill="#b9cffe"/>
            <path id="Path_38" data-name="Path 38" d="M1758.507-369.969s-25.059,28.651-6.049,41.236,36.005.536,37.446-14.727-20.451-26.509-20.451-26.509,4.121-87.24-16.995-107.43-80.91-8.82-102.254,5.452-10.859,38.291-10.11,45.6-6.74,57.785-5.616,60.918,8.237,0,8.237,0l4.12-49.43s13.106,8.354,15.727,20.19,2.247,27.152,2.247,27.152l10.859-2.437s1.124-18.8-4.868-29.24-23.965-29.24-23.965-29.24-11.234-27.848,6.74-37.943,68.407-25.99,92-7.889S1758.507-369.969,1758.507-369.969Z" transform="translate(-1541.813 666.815)" fill="#3e4351"/>
            <g id="Group_6" data-name="Group 6" transform="translate(85.905 0)">
              <path id="Union_2" data-name="Union 2" d="M44.851,201.182V181.268l.392-.05c-7.574-3.338-14.23-9.062-20.928-18.641-6.165-8.812-8.734-19.019-9.8-30.468C9.895,130.178,3.015,122.4.9,115.4c-2.678-8.858.823-16.891,8.032-19.981a6.534,6.534,0,0,1,4.995-.157C15.942,46.864,37.105,0,74.7,0c37.041,0,55.449,48.074,57.649,96.04a6.766,6.766,0,0,1,6.556-.619c7.209,3.09,10.711,11.122,8.035,19.981-2.455,8.116-11.311,17.272-15.627,17.158-1.738,12.569-5.792,22.661-15.1,33.5a66.416,66.416,0,0,1-7.092,7.162l1.8,18.912s-20.7,14.951-39.252,15.856q-1.544.074-2.991.074C52.224,208.061,44.851,201.182,44.851,201.182Z" transform="translate(0 0.274)" fill="#f6b294"/>
              <path id="Path_27" data-name="Path 27" d="M1708.825-508.037c25.914,0,32.084-9.412,32.084-9.412l19.126,19.413,7.4,51.769s11.106-54.711,2.468-79.419S1740.3-555.1,1708.825-555.1s-49.36,7.059-59.232,29.414,0,79.419,0,79.419l7.4-51.769,15.425-19.413S1682.911-508.037,1708.825-508.037Z" transform="translate(-1636.292 555.099)" fill="#151f3a"/>
              <rect id="Rectangle_3" data-name="Rectangle 3" width="27" height="13" rx="2" transform="translate(83.608 77.95)" fill="#151f3a"/>
              <rect id="Rectangle_4" data-name="Rectangle 4" width="28" height="13" rx="2" transform="translate(27.608 77.95)" fill="#151f3a"/>
              <ellipse id="Ellipse_1" data-name="Ellipse 1" cx="5.5" cy="8.5" rx="5.5" ry="8.5" transform="translate(90.608 99.95)" fill="#151f3a"/>
              <ellipse id="Ellipse_2" data-name="Ellipse 2" cx="5.5" cy="8.5" rx="5.5" ry="8.5" transform="translate(35.608 99.95)" fill="#151f3a"/>
              <path id="Path_28" data-name="Path 28" d="M1662.789-509.736s5.768,3.3,10.3,3.3,10.711-3.3,10.711-3.3Z" transform="translate(-1605.203 640.244)" fill="#d67473"/>
              <path id="Path_29" data-name="Path 29" d="M1660.479-502.6h34.274s-9.64,10.979-18.476,9.907S1660.479-502.6,1660.479-502.6Z" transform="translate(-1609.258 652.763)" fill="#d67473"/>
              <path id="Path_30" data-name="Path 30" d="M1699.442-495.725s-10.094,12.184-20.886,13.228-11.487,0-11.487,0,15.316,9.747,25.759,8.7,6.614-2.089,6.614-2.089Z" transform="translate(-1589.423 667.595)" fill="#d67473"/>
            </g>
            <rect id="Rectangle_5" data-name="Rectangle 5" width="20" height="11" rx="5.5" transform="translate(150.512 375.951)" fill="#3e4351"/>
            <rect id="Rectangle_6" data-name="Rectangle 6" width="19" height="11" rx="5.5" transform="translate(53.512 372.951)" fill="#3e4351"/>
            <path id="Path_41" data-name="Path 41" d="M2013.313-426.906c15.036-.206,14.212-13.388,14.212-13.388s-4.943,8.857-14.212,8.857-15.243-7.621-15.243-7.621S1998.277-426.7,2013.313-426.906Z" transform="translate(-1787.674 762.143)" fill="#b9cffe"/>
            <path id="Path_42" data-name="Path 42" d="M2023.784-444.084c8.825,45.887,0,112.364,0,112.364" transform="translate(-1753.97 754.675)" fill="none" stroke="#9fb6e8" stroke-linecap="round" stroke-width="5"/>
          </g>
        </g>
        <g id="Mask_Group_2" data-name="Mask Group 2" clip-path="url(#clip-path-2)">
          <g id="Group_45" data-name="Group 45" transform="translate(55.528 -0.106)">
            <g id="Group_5-2" data-name="Group 5" transform="translate(0.769 184.14)">
              <path id="Path_35-2" data-name="Path 35" d="M1817.669-477.769s72.362,19.093,89.952,49.768S1927.5-221.165,1927.5-221.165s-46.651,49.08-169.015,49.956-148.366-65.732-148.366-65.732S1593.3-395.573,1637.655-428a752.874,752.874,0,0,1,88.714-55.215,49.918,49.918,0,0,0,39,10.517C1789.08-476.2,1817.669-477.769,1817.669-477.769Z" transform="translate(-1606.993 497.147)" fill="#2e4897"/>
              <path id="Path_33-2" data-name="Path 33" d="M1705.649-488.272s-9.461,11.85-19.494,17.753a44.851,44.851,0,0,1-20.634,5.859l20.634,35.913,35.854-41.772Z" transform="translate(-1509.761 488.272)" fill="#53638e"/>
              <path id="Path_34-2" data-name="Path 34" d="M1698.914-466.912l-24.232,37.36L1643.7-467.671l28.888-20.935s2.472,9.9,8.531,15.357S1698.914-466.912,1698.914-466.912Z" transform="translate(-1542.554 490.44)" fill="#53638e"/>
            </g>
            <path id="Path_36-2" data-name="Path 36" d="M1703.306-482.511s-21.178,102.474-22.943,132.138-3.53,181.353-3.53,181.353,110.01-21.574,138.248-58.653c7.648-47.866-.589-170.566-27.65-209.668S1703.306-482.511,1703.306-482.511Z" transform="translate(-1486.379 685.965)" fill="#fff"/>
            <path id="Path_37-2" data-name="Path 37" d="M1709.5-482.084s-20.341,68.293-20.341,184.858v113.059s-62.712-10.517-78.772-51.709c0-54.338-13-163.891,18.354-198.949S1709.5-482.084,1709.5-482.084Z" transform="translate(-1607.714 690.044)" fill="#fff"/>
            <path id="Path_39-2" data-name="Path 39" d="M2011.312-446.284s-11.91,50.439-28.079,71.86-36.6,13.826-36.6,13.826l3.707-2.884a29.026,29.026,0,0,0,27.807-9.269c12.1-13.491,14.1-25.212,21.363-44.677s7.68-33.182,7.68-33.182Z" transform="translate(-1880.721 741.281)" fill="#b9cffe"/>
            <path id="Path_40-2" data-name="Path 40" d="M1946.635-446.284s11.91,50.439,28.079,71.86,36.6,13.826,36.6,13.826l-3.708-2.884a29.026,29.026,0,0,1-27.807-9.269c-12.1-13.491-14.1-25.212-21.362-44.677s-7.681-33.182-7.681-33.182Z" transform="translate(-1853.167 744.036)" fill="#b9cffe"/>
            <path id="Path_38-2" data-name="Path 38" d="M1758.507-369.969s-25.059,28.651-6.049,41.236,36.005.536,37.446-14.727-20.451-26.509-20.451-26.509,4.121-87.24-16.995-107.43-80.91-8.82-102.254,5.452-10.859,38.291-10.11,45.6-6.74,57.785-5.616,60.918,8.237,0,8.237,0l4.12-49.43s13.106,8.354,15.727,20.19,2.247,27.152,2.247,27.152l10.859-2.437s1.124-18.8-4.868-29.24-23.965-29.24-23.965-29.24-11.234-27.848,6.74-37.943,68.407-25.99,92-7.889S1758.507-369.969,1758.507-369.969Z" transform="translate(-1541.813 666.815)" fill="#3e4351"/>
            <g id="Group_6-2" data-name="Group 6" transform="translate(85.905 0)">
              <path id="Union_2-2" data-name="Union 2" d="M44.851,201.182V181.268l.392-.05c-7.574-3.338-14.23-9.062-20.928-18.641-6.165-8.812-8.734-19.019-9.8-30.468C9.895,130.178,3.015,122.4.9,115.4c-2.678-8.858.823-16.891,8.032-19.981a6.534,6.534,0,0,1,4.995-.157C15.942,46.864,37.105,0,74.7,0c37.041,0,55.449,48.074,57.649,96.04a6.766,6.766,0,0,1,6.556-.619c7.209,3.09,10.711,11.122,8.035,19.981-2.455,8.116-11.311,17.272-15.627,17.158-1.738,12.569-5.792,22.661-15.1,33.5a66.416,66.416,0,0,1-7.092,7.162l1.8,18.912s-20.7,14.951-39.252,15.856q-1.544.074-2.991.074C52.224,208.061,44.851,201.182,44.851,201.182Z" transform="translate(0 0.274)" fill="#f6b294"/>
              <path id="Path_27-2" data-name="Path 27" d="M1708.825-508.037c25.914,0,32.084-9.412,32.084-9.412l19.126,19.413,7.4,51.769s11.106-54.711,2.468-79.419S1740.3-555.1,1708.825-555.1s-49.36,7.059-59.232,29.414,0,79.419,0,79.419l7.4-51.769,15.425-19.413S1682.911-508.037,1708.825-508.037Z" transform="translate(-1636.292 555.099)" fill="#151f3a"/>
              <rect id="Rectangle_3-2" data-name="Rectangle 3" width="27" height="13" rx="2" transform="translate(83.608 77.95)" fill="#151f3a"/>
              <rect id="Rectangle_4-2" data-name="Rectangle 4" width="28" height="13" rx="2" transform="translate(27.608 77.95)" fill="#151f3a"/>
              <path id="Path_28-2" data-name="Path 28" d="M1662.789-509.736s5.768,3.3,10.3,3.3,10.711-3.3,10.711-3.3Z" transform="translate(-1605.203 640.244)" fill="#d67473"/>
              <path id="Path_29-2" data-name="Path 29" d="M1660.479-502.6h34.274s-9.64,10.979-18.476,9.907S1660.479-502.6,1660.479-502.6Z" transform="translate(-1609.258 652.763)" fill="#d67473"/>
              <path id="Path_30-2" data-name="Path 30" d="M1699.442-495.725s-10.094,12.184-20.886,13.228-11.487,0-11.487,0,15.316,9.747,25.759,8.7,6.614-2.089,6.614-2.089Z" transform="translate(-1589.423 667.595)" fill="#d67473"/>
              <rect id="Rectangle_125" data-name="Rectangle 125" width="19" height="4" rx="2" transform="translate(85.608 112.951)" fill="#151f3a"/>
              <rect id="Rectangle_126" data-name="Rectangle 126" width="17" height="4" rx="2" transform="translate(27.608 112.951)" fill="#151f3a"/>
            </g>
            <rect id="Rectangle_5-2" data-name="Rectangle 5" width="20" height="11" rx="5.5" transform="translate(150.512 375.951)" fill="#3e4351"/>
            <rect id="Rectangle_6-2" data-name="Rectangle 6" width="19" height="11" rx="5.5" transform="translate(53.512 372.951)" fill="#3e4351"/>
            <path id="Path_41-2" data-name="Path 41" d="M2013.313-426.906c15.036-.206,14.212-13.388,14.212-13.388s-4.943,8.857-14.212,8.857-15.243-7.621-15.243-7.621S1998.277-426.7,2013.313-426.906Z" transform="translate(-1787.674 762.143)" fill="#b9cffe"/>
            <path id="Path_42-2" data-name="Path 42" d="M2023.784-444.084c8.825,45.887,0,112.364,0,112.364" transform="translate(-1753.97 754.675)" fill="none" stroke="#9fb6e8" stroke-linecap="round" stroke-width="5"/>
            <path id="Path_43" data-name="Path 43" d="M2027.706-444.084c-8.824,45.887,0,112.364,0,112.364" transform="translate(-1987.77 749.981)" fill="none" stroke="#9fb6e8" stroke-linecap="round" stroke-width="5"/>
          </g>
        </g>
      </g>
    </g>
    <path id="Path_485" data-name="Path 485" d="M1151.4,659.994l-3.749-16.28s11.246-8.569,12.853-18.208-10.945-20.5-10.945-20.5l-10.93-50.933s-3.658-9.556-10.033-6.931-4.688,9.75-4.688,9.75l4.688,27.376-36.376,20.738s-5.306,50,19.411,44.925c6.338,34.541,8.873,63.06,8.873,63.06Z" transform="translate(-1 -228)" fill="#f6b294"/>
    <path id="Path_484" data-name="Path 484" d="M1250.369,673.222s-39.962,19.7-52.911,30.841c-2.368-14.62-46.646-44.069-46.646-44.069l-49.43,73.1s57.3,112.575,101.645,95.379,67.531-38.291,67.531-38.291Z" transform="translate(0 -232)" fill="#fff"/>
    <path id="Path_486" data-name="Path 486" d="M1146.241,647.474s-25.385,8.366-24.953,8.366,20.193,1.587,24.087,1.154,2.6-2.308,2.6-2.308Z" transform="translate(0 -232)" fill="#d67473"/>
  </g>
</svg>
