<svg id="pic-juice" xmlns="http://www.w3.org/2000/svg" width="71.408" height="129.53" viewBox="0 0 71.408 129.53">
  <path id="Path_523" data-name="Path 523" d="M156.808,84.692,146.591,179.9H96.6L86.381,84.692Z" transform="translate(-86.381 -56.199)" fill="#ebf0f3"/>
  <path id="Path_524" data-name="Path 524" d="M166.1,338.859l-.676,5.836c0,3.219-8.746,5.821-24.989,5.821s-25-2.6-25-5.821l-.661-5.836a2.043,2.043,0,0,1,.514-1.294c2.117-2.6,10.789-4.542,25.151-4.542,14.332,0,23,1.94,25.136,4.528A1.991,1.991,0,0,1,166.1,338.859Z" transform="translate(-105.217 -220.986)" fill="#d5d6db"/>
  <path id="Path_525" data-name="Path 525" d="M163.506,192.228l-5.659,52.051-.132,1.147c0,2.852-7.894,5.159-22.534,5.159s-22.549-2.308-22.549-5.159l-.132-1.132-5.645-52.065Z" transform="translate(-99.966 -127.558)" fill="#fcd462"/>
  <ellipse id="Ellipse_27" data-name="Ellipse 27" cx="35.214" cy="6.98" rx="35.214" ry="6.98" transform="translate(0 21.512)" fill="#e1e6e9"/>
  <path id="Path_526" data-name="Path 526" d="M126.708,80.157c-19.324,0-30.325-2.9-32.62-4.664,2.3-1.767,13.3-4.664,32.62-4.664s30.325,2.9,32.621,4.664c-2.3,1.767-13.3,4.664-32.621,4.664Z" transform="translate(-91.495 -47.001)" fill="#ebf0f3"/>
  <path id="Path_527" data-name="Path 527" d="M163.506,181.152c0,2.631-9.158,4.851-21.505,5.453q-2.2.11-4.542.132c-.75.029-1.514.029-2.278.029-15.64,0-28.326-2.513-28.326-5.615s12.686-5.615,28.326-5.615c1.558,0,3.087.029,4.571.074,1.529.044,3.028.117,4.469.22C155.436,176.58,163.506,178.682,163.506,181.152Z" transform="translate(-99.966 -116.481)" fill="#f7be56"/>
  <path id="Path_528" data-name="Path 528" d="M139.751,195.9a78.8,78.8,0,0,1-8.717-.773l-1.676-16.793-7.82-78.149c2.6.489,5.556.914,8.761,1.214l7.614,76.02Z" transform="translate(-109.71 -66.479)" fill="#fff" opacity="0.25"/>
  <path id="Path_529" data-name="Path 529" d="M179.827,199.242c-1.5.063-3.087.095-4.748.095H174.8l-1.558-18.749L166.98,105.2c1.646.095,3.337.142,5.056.174l6.247,75.232Z" transform="translate(-139.864 -69.807)" fill="#fff" opacity="0.25"/>
  <path id="Path_530" data-name="Path 530" d="M188.951,92.713l-4.319-.89L201.564,9.671,221.024,0l1.962,3.949L205.45,12.664Z" transform="translate(-151.578 0)" fill="#e56353" opacity="0.75"/>
  <path id="Path_531" data-name="Path 531" d="M194.727,192.228l-5.777,28.046-4.321-.9,5.6-27.15Z" transform="translate(-151.575 -127.558)" fill="#f7be56" opacity="0.75"/>
  <path id="Path_532" data-name="Path 532" d="M204.585,175.976l-2.22,10.775q-2.2.11-4.542.132l2.293-11.128C201.645,175.8,203.144,175.873,204.585,175.976Z" transform="translate(-160.331 -116.627)" fill="#e56353" opacity="0.75"/>
</svg>
