<svg id="pic-treadmill" xmlns="http://www.w3.org/2000/svg" xmlns:xlink="http://www.w3.org/1999/xlink" width="177.913" height="152.287" viewBox="0 0 177.913 152.287">
  <defs>
    <linearGradient id="linear-gradient" x1="-0.135" y1="0.5" x2="0.998" y2="0.5" gradientUnits="objectBoundingBox">
      <stop offset="0" stop-color="#a79ba7"/>
      <stop offset="0.749" stop-color="#7a6d79"/>
      <stop offset="1" stop-color="#685e68"/>
    </linearGradient>
    <linearGradient id="linear-gradient-3" x1="-0.51" y1="0.5" x2="0.727" y2="0.5" xlink:href="#linear-gradient"/>
    <linearGradient id="linear-gradient-4" x1="0.015" y1="0.5" x2="0.985" y2="0.5" xlink:href="#linear-gradient"/>
    <linearGradient id="linear-gradient-5" x1="0.061" y1="0.5" x2="0.82" y2="0.5" xlink:href="#linear-gradient"/>
    <linearGradient id="linear-gradient-7" x1="-0.015" y1="0.5" x2="1.11" y2="0.5" gradientUnits="objectBoundingBox">
      <stop offset="0" stop-color="#f8f6f7"/>
      <stop offset="0.179" stop-color="#f8f6f7"/>
      <stop offset="1" stop-color="#e7e6f5"/>
    </linearGradient>
    <linearGradient id="linear-gradient-8" x1="-0.755" x2="0.691" xlink:href="#linear-gradient-7"/>
    <linearGradient id="linear-gradient-9" x1="-0.243" y1="0.5" x2="0.776" y2="0.5" gradientUnits="objectBoundingBox">
      <stop offset="0" stop-color="#f8f6f7"/>
      <stop offset="1" stop-color="#d1ceeb"/>
    </linearGradient>
    <linearGradient id="linear-gradient-10" x1="-0.226" x2="0.811" xlink:href="#linear-gradient-9"/>
    <linearGradient id="linear-gradient-12" x1="0.05" x2="1.019" xlink:href="#linear-gradient-7"/>
    <linearGradient id="linear-gradient-13" x1="0" x2="1" xlink:href="#linear-gradient-7"/>
    <linearGradient id="linear-gradient-14" x1="-1.416" x2="0.576" xlink:href="#linear-gradient-9"/>
    <linearGradient id="linear-gradient-15" x1="-0.015" y1="0.5" x2="1.11" y2="0.5" xlink:href="#linear-gradient"/>
    <linearGradient id="linear-gradient-16" x1="-1.907" y1="0.5" x2="0.172" y2="0.5" xlink:href="#linear-gradient"/>
    <linearGradient id="linear-gradient-17" x1="-0.226" y1="0.5" x2="0.811" y2="0.5" xlink:href="#linear-gradient"/>
  </defs>
  <path id="Path_551" data-name="Path 551" d="M86.215,38.107l21.977,38.065a2.755,2.755,0,0,1-1.008,3.763l-3.439,1.986a15.6,15.6,0,0,1-21.3-5.708L73.3,60.387a15.594,15.594,0,0,1,5.708-21.3L82.451,37.1a2.755,2.755,0,0,1,3.763,1.009Z" transform="translate(-46.37 -36.729)" fill="url(#linear-gradient)"/>
  <path id="Path_552" data-name="Path 552" d="M86.215,38.107l21.977,38.065a2.755,2.755,0,0,1-1.008,3.763l-3.439,1.986a15.6,15.6,0,0,1-21.3-5.708L73.3,60.387a15.594,15.594,0,0,1,5.708-21.3L82.451,37.1a2.755,2.755,0,0,1,3.763,1.009Z" transform="translate(-46.37 -36.729)" fill="url(#linear-gradient)"/>
  <path id="Path_553" data-name="Path 553" d="M108.521,87.068a2.735,2.735,0,0,1-1.337,1.954l-3.439,1.986a15.583,15.583,0,0,1-21.3-5.708L73.306,69.475a15.592,15.592,0,0,1,.8-16.848c.042-.06.081-.117.123-.173a4.411,4.411,0,0,1,7.944,2.639,29.461,29.461,0,0,0,8.685,20.972,45.591,45.591,0,0,0,17.659,11Z" transform="translate(-46.371 -45.816)" fill="url(#linear-gradient-3)"/>
  <path id="Path_554" data-name="Path 554" d="M191.332,182.294a4.411,4.411,0,0,1-4.126-2.854L166.7,125.083a15.7,15.7,0,0,0-14.613-10.1H108.865a54.263,54.263,0,0,1-38.622-16A38.222,38.222,0,0,1,58.973,71.774a4.409,4.409,0,0,1,8.819,0,29.461,29.461,0,0,0,8.686,20.97,45.5,45.5,0,0,0,32.386,13.415h43.219a24.558,24.558,0,0,1,22.864,15.811l20.51,54.357a4.412,4.412,0,0,1-4.125,5.967Z" transform="translate(-38.4 -56.678)" fill="url(#linear-gradient-4)"/>
  <path id="Path_555" data-name="Path 555" d="M82.416,346.847H40.339l3.909-17.169h15a22.848,22.848,0,0,1,19.684,11.25Z" transform="translate(-26.267 -227.483)" fill="url(#linear-gradient-5)"/>
  <path id="Path_556" data-name="Path 556" d="M66.168,330.757l-3.7,16.09H40.339l3.909-17.169h15A22.632,22.632,0,0,1,66.168,330.757Z" transform="translate(-26.267 -227.483)" fill="url(#linear-gradient-5)"/>
  <path id="Path_557" data-name="Path 557" d="M175.474,393.162H46.088a12.571,12.571,0,1,1,0-25.142H175.474a12.571,12.571,0,1,1,0,25.142Z" transform="translate(-21.825 -252.449)" fill="url(#linear-gradient-7)"/>
  <path id="Path_558" data-name="Path 558" d="M58.891,368.022l-5.785,25.141h-7.02a12.571,12.571,0,0,1,0-25.142H58.891Z" transform="translate(-21.822 -252.451)" fill="url(#linear-gradient-8)"/>
  <path id="Path_559" data-name="Path 559" d="M414.1,368.02H399.978a12.571,12.571,0,1,1,0,25.142H414.1a12.571,12.571,0,1,0,0-25.142Z" transform="translate(-260.446 -252.449)" fill="url(#linear-gradient-9)"/>
  <path id="Path_560" data-name="Path 560" d="M188.916,398.893H60.775a5.659,5.659,0,0,1-5.659-5.659v-.6a5.659,5.659,0,0,1,5.659-5.659H188.916a5.659,5.659,0,0,1,5.659,5.659v.6A5.659,5.659,0,0,1,188.916,398.893Z" transform="translate(-35.889 -264.795)" fill="url(#linear-gradient-10)"/>
  <path id="Path_561" data-name="Path 561" d="M68.7,398.894l2.742-11.914H60.776a5.659,5.659,0,0,0-5.659,5.659v.6a5.659,5.659,0,0,0,5.659,5.659H68.7Z" transform="translate(-35.889 -264.795)" fill="url(#linear-gradient-10)"/>
  <path id="Path_562" data-name="Path 562" d="M60.559,163.827l-19.24,84.529a7.022,7.022,0,0,1-13.687-3.143l20.76-91.207q.64.709,1.323,1.39A54.976,54.976,0,0,0,60.559,163.827Z" transform="translate(-17.874 -113.095)" fill="url(#linear-gradient-12)"/>
  <path id="Path_563" data-name="Path 563" d="M58.686,190.248,41.319,266.539A7.022,7.022,0,1,1,27.632,263.4L46.177,181.93a54.493,54.493,0,0,0,12.509,8.318Z" transform="translate(-17.874 -131.277)" fill="url(#linear-gradient-13)"/>
  <path id="Path_564" data-name="Path 564" d="M95.513,163.831l-1.873,8.237a54.478,54.478,0,0,1-12.509-8.318l2.215-9.74q.64.709,1.323,1.39A54.978,54.978,0,0,0,95.513,163.831Z" transform="translate(-52.829 -113.097)" fill="url(#linear-gradient-14)"/>
  <g id="Group_163" data-name="Group 163" transform="translate(0 138.242)">
    <path id="Path_565" data-name="Path 565" d="M170.891,447.055H7.022a7.023,7.023,0,0,1,0-14.045H170.891a7.023,7.023,0,0,1,0,14.045Z" transform="translate(0 -433.01)" fill="url(#linear-gradient-15)"/>
    <path id="Path_566" data-name="Path 566" d="M463.519,433.01H449.4a7.022,7.022,0,1,1,0,14.045h14.118a7.022,7.022,0,1,0,0-14.045Z" transform="translate(-292.628 -433.01)" fill="url(#linear-gradient-16)"/>
  </g>
  <circle id="Ellipse_28" data-name="Ellipse 28" cx="5.957" cy="5.957" r="5.957" transform="translate(146.772 122.185)" fill="url(#linear-gradient-17)"/>
</svg>
